<?xml version="1.0" encoding="UTF-8" standalone="no"?>
<!DOCTYPE svg PUBLIC "-//W3C//DTD SVG 1.1//EN" "http://www.w3.org/Graphics/SVG/1.1/DTD/svg11.dtd">
<svg width="100%" height="100%" viewBox="0 0 175 119" version="1.1" xmlns="http://www.w3.org/2000/svg" xmlns:xlink="http://www.w3.org/1999/xlink" xml:space="preserve" xmlns:serif="http://www.serif.com/" style="fill-rule:evenodd;clip-rule:evenodd;stroke-linejoin:round;stroke-miterlimit:2;">
    <g transform="matrix(0.870194,0,0,0.594371,0,0)">
        <rect id="Artboard1" x="0" y="0" width="200" height="200" style="fill:none;"/>
        <g id="Artboard11" serif:id="Artboard1">
            <g transform="matrix(1.14917,0,0,1.68245,-721.605,-300.875)">
                <g>
                    <g transform="matrix(1,0,0,1,-72.786,-85.361)">
                        <path d="M713.09,278.5L713.09,346.562L860.65,346.562L860.65,278.5L854.779,278.5L854.65,340.562L719.09,340.562L719.09,284.5L834.43,284.5L834.43,278.5L713.09,278.5Z" style="fill:rgb(51,51,51);fill-rule:nonzero;"/>
                    </g>
                    <g transform="matrix(1,0,0,1,-72.786,-85.361)">
                        <path d="M747.71,313.26C747.71,308.119 747.179,304.448 746.116,302.244C745.069,300.041 743.343,298.939 740.937,298.939C738.546,298.939 736.819,300.041 735.757,302.244C734.71,304.447 734.187,308.119 734.187,313.26C734.186,318.385 734.71,322.049 735.757,324.252C736.819,326.455 738.546,327.557 740.937,327.557C743.343,327.557 745.069,326.463 746.116,324.276C747.179,322.072 747.71,318.401 747.71,313.26M752.655,313.26C752.655,319.353 751.687,323.901 749.749,326.901C747.827,329.901 744.89,331.401 740.937,331.401C736.984,331.401 734.046,329.908 732.124,326.924C730.202,323.94 729.241,319.385 729.241,313.26C729.241,307.151 730.202,302.596 732.124,299.596C734.062,296.596 736.999,295.096 740.937,295.096C744.89,295.096 747.827,296.596 749.749,299.596C751.687,302.596 752.655,307.151 752.655,313.26" style="fill:rgb(51,51,51);fill-rule:nonzero;"/>
                    </g>
                    <g transform="matrix(1,0,0,1,-72.786,-85.361)">
                        <path d="M779.1,296.93L779.1,301.735C777.663,300.813 776.217,300.118 774.764,299.649C773.327,299.18 771.874,298.946 770.405,298.946C768.17,298.946 766.405,299.469 765.108,300.516C763.811,301.547 763.162,302.946 763.162,304.711C763.162,306.258 763.584,307.438 764.428,308.25C765.287,309.063 766.881,309.743 769.209,310.289L771.694,310.852C774.975,311.618 777.365,312.821 778.866,314.461C780.366,316.102 781.116,318.336 781.116,321.164C781.116,324.493 780.084,327.032 778.022,328.782C775.959,330.532 772.959,331.407 769.022,331.407C767.381,331.407 765.733,331.227 764.077,330.868C762.42,330.524 760.756,330 759.084,329.297L759.084,324.258C760.881,325.399 762.577,326.235 764.17,326.766C765.78,327.297 767.397,327.563 769.022,327.563C771.412,327.563 773.272,327.032 774.6,325.969C775.928,324.891 776.592,323.391 776.592,321.469C776.592,319.719 776.131,318.383 775.209,317.461C774.303,316.539 772.717,315.828 770.452,315.328L767.92,314.743C764.67,314.008 762.311,312.899 760.842,311.414C759.373,309.93 758.639,307.938 758.639,305.438C758.639,302.313 759.686,299.813 761.78,297.938C763.889,296.047 766.686,295.102 770.17,295.102C771.514,295.102 772.928,295.258 774.413,295.571C775.897,295.868 777.459,296.321 779.1,296.93" style="fill:rgb(51,51,51);fill-rule:nonzero;"/>
                    </g>
                    <g transform="matrix(1,0,0,1,-72.786,-85.361)">
                        <path d="M787.46,295.73L792.218,295.73L792.218,310.074L805.179,310.074L805.179,295.73L809.937,295.73L809.937,330.722L805.179,330.722L805.179,314.058L792.218,314.058L792.218,330.722L787.46,330.722L787.46,295.73" style="fill:rgb(51,51,51);fill-rule:nonzero;"/>
                    </g>
                </g>
                <g transform="matrix(1,0,0,1,-72.786,-85.361)">
                    <path d="M813.13,295.73L817.747,295.73L821.099,324.136L825.083,305.339L830.029,305.339L834.06,324.183L845.412,269.73L850.029,269.73L836.802,330.722L832.325,330.722L827.568,309.933L822.833,330.722L818.357,330.722L813.13,295.73" style="fill:rgb(255,68,68);fill-rule:nonzero;"/>
                </g>
                <g transform="matrix(0.875121,0,0,0.875121,642.912,286.113)">
                    <text x="0px" y="0px" style="font-family:'AndaleMono', 'Andale Mono', monospace;font-size:33.75px;fill:rgb(51,51,51);">US000128</text>
                </g>
            </g>
        </g>
    </g>
</svg>
